<svg xmlns="http://www.w3.org/2000/svg" viewBox="0 0 1200 800" preserveAspectRatio="xMidYMid slice">
  <defs>
    <linearGradient id="bg" x1="0%" y1="0%" x2="100%" y2="100%">
      <stop offset="0%" stop-color="#fff7fb"/>
      <stop offset="100%" stop-color="#ffedd5"/>
    </linearGradient>
  </defs>
  <rect width="1200" height="800" fill="url(#bg)"/>
  <g opacity="0.92">
    <circle cx="160" cy="160" r="72" fill="#fb7185"/>
    <circle cx="160" cy="160" r="50" fill="none" stroke="#ffffff" stroke-width="16"/>
    <circle cx="970" cy="170" r="86" fill="#fbbf24"/>
    <circle cx="970" cy="170" r="58" fill="none" stroke="#ffffff" stroke-width="18"/>
    <circle cx="310" cy="610" r="94" fill="#38bdf8"/>
    <circle cx="310" cy="610" r="62" fill="none" stroke="#ffffff" stroke-width="18"/>
    <circle cx="920" cy="570" r="78" fill="#34d399"/>
    <circle cx="920" cy="570" r="54" fill="none" stroke="#ffffff" stroke-width="16"/>
  </g>
  <g fill="#ffffff" opacity="0.8">
    <rect x="470" y="140" width="200" height="92" rx="46"/>
    <rect x="500" y="400" width="180" height="84" rx="42"/>
    <rect x="700" y="290" width="150" height="70" rx="35"/>
  </g>
  <g stroke="#ffffff" stroke-width="18" stroke-linecap="round" opacity="0.84">
    <line x1="88" y1="160" x2="40" y2="160"/>
    <line x1="232" y1="160" x2="280" y2="160"/>
    <line x1="880" y1="170" x2="820" y2="170"/>
    <line x1="1060" y1="170" x2="1120" y2="170"/>
  </g>
</svg>
