<svg xmlns="http://www.w3.org/2000/svg" viewBox="0 0 1200 800" preserveAspectRatio="xMidYMid slice">
  <defs>
    <linearGradient id="bg" x1="0%" y1="0%" x2="0%" y2="100%">
      <stop offset="0%" stop-color="#eefbff"/>
      <stop offset="100%" stop-color="#dbeafe"/>
    </linearGradient>
  </defs>
  <rect width="1200" height="800" fill="url(#bg)"/>
  <g fill="#ffffff" opacity="0.8">
    <polygon points="140,120 180,200 120,210"/>
    <polygon points="240,80 290,180 210,195"/>
    <polygon points="970,120 1040,230 920,240"/>
    <polygon points="1080,180 1140,300 1010,305"/>
  </g>
  <g fill="#bfdbfe" opacity="0.65">
    <polygon points="140,560 260,760 80,770"/>
    <polygon points="340,500 470,760 260,770"/>
    <polygon points="860,510 980,760 780,770"/>
    <polygon points="1020,470 1160,760 940,770"/>
  </g>
  <g stroke="#93c5fd" stroke-width="6" opacity="0.7">
    <line x1="600" y1="120" x2="600" y2="250"/>
    <line x1="540" y1="185" x2="660" y2="185"/>
    <line x1="555" y1="140" x2="645" y2="230"/>
    <line x1="645" y1="140" x2="555" y2="230"/>
  </g>
</svg>
