<svg xmlns="http://www.w3.org/2000/svg" viewBox="0 0 1200 800" shape-rendering="crispEdges" preserveAspectRatio="xMidYMid slice">
  <rect width="1200" height="800" fill="#1b1c34"/>
  <rect x="0" y="0" width="1200" height="180" fill="#2b2d56"/>
  <rect x="0" y="180" width="1200" height="160" fill="#34377a"/>
  <rect x="0" y="340" width="1200" height="120" fill="#44488f"/>
  <rect x="0" y="460" width="1200" height="140" fill="#2b2d56"/>
  <rect x="0" y="600" width="1200" height="200" fill="#16172b"/>

  <g fill="#f59e0b">
    <rect x="900" y="90" width="30" height="30"/>
    <rect x="930" y="90" width="30" height="30"/>
    <rect x="870" y="120" width="30" height="30"/>
    <rect x="900" y="120" width="30" height="30"/>
    <rect x="930" y="120" width="30" height="30"/>
    <rect x="960" y="120" width="30" height="30"/>
    <rect x="900" y="150" width="30" height="30"/>
    <rect x="930" y="150" width="30" height="30"/>
  </g>

  <g fill="#f8fafc" opacity="0.7">
    <rect x="120" y="120" width="36" height="24"/>
    <rect x="156" y="120" width="36" height="24"/>
    <rect x="192" y="120" width="36" height="24"/>
    <rect x="156" y="144" width="36" height="24"/>
    <rect x="710" y="150" width="36" height="24"/>
    <rect x="746" y="150" width="36" height="24"/>
    <rect x="782" y="150" width="36" height="24"/>
    <rect x="746" y="174" width="36" height="24"/>
  </g>

  <g fill="#6366f1">
    <rect x="40" y="520" width="180" height="80"/>
    <rect x="220" y="460" width="170" height="140"/>
    <rect x="390" y="410" width="180" height="190"/>
    <rect x="570" y="350" width="220" height="250"/>
    <rect x="790" y="440" width="160" height="160"/>
    <rect x="950" y="500" width="210" height="100"/>
  </g>

  <g fill="#fde68a">
    <rect x="0" y="600" width="1200" height="200"/>
    <rect x="100" y="560" width="70" height="40"/>
    <rect x="300" y="520" width="90" height="80"/>
    <rect x="640" y="490" width="100" height="110"/>
    <rect x="1030" y="550" width="80" height="50"/>
  </g>

  <g fill="#1f2937">
    <rect x="160" y="535" width="18" height="65"/>
    <rect x="356" y="505" width="18" height="95"/>
    <rect x="688" y="470" width="18" height="130"/>
    <rect x="1076" y="540" width="18" height="60"/>
  </g>
</svg>
