<svg xmlns="http://www.w3.org/2000/svg" viewBox="0 0 1200 800" preserveAspectRatio="xMidYMid slice">
  <defs>
    <linearGradient id="bg" x1="0%" y1="0%" x2="0%" y2="100%">
      <stop offset="0%" stop-color="#fff7fb"/>
      <stop offset="100%" stop-color="#fce7f3"/>
    </linearGradient>
  </defs>
  <rect width="1200" height="800" fill="url(#bg)"/>
  <path d="M40 0 C120 110, 160 180, 190 300 S220 520, 150 800" fill="none" stroke="#7f5539" stroke-width="18" stroke-linecap="round"/>
  <path d="M1200 0 C1110 120, 1060 210, 1030 330 S980 560, 1040 800" fill="none" stroke="#7f5539" stroke-width="16" stroke-linecap="round"/>
  <g fill="#f9a8d4" opacity="0.86">
    <circle cx="210" cy="190" r="22"/>
    <circle cx="240" cy="150" r="20"/>
    <circle cx="180" cy="240" r="18"/>
    <circle cx="1000" cy="210" r="22"/>
    <circle cx="1030" cy="170" r="20"/>
    <circle cx="970" cy="250" r="18"/>
  </g>
  <g fill="#fbcfe8" opacity="0.74">
    <path d="M360 220c8-16 29-16 37 0c-14 10-23 18-18 34c-18-7-31-18-19-34z"/>
    <path d="M780 310c8-16 29-16 37 0c-14 10-23 18-18 34c-18-7-31-18-19-34z"/>
    <path d="M600 520c8-16 29-16 37 0c-14 10-23 18-18 34c-18-7-31-18-19-34z"/>
    <path d="M890 600c8-16 29-16 37 0c-14 10-23 18-18 34c-18-7-31-18-19-34z"/>
  </g>
</svg>
