<svg xmlns="http://www.w3.org/2000/svg" viewBox="0 0 1200 800" preserveAspectRatio="xMidYMid slice">
  <defs>
    <linearGradient id="space" x1="0%" y1="0%" x2="0%" y2="100%">
      <stop offset="0%" stop-color="#08101f"/>
      <stop offset="100%" stop-color="#0f172a"/>
    </linearGradient>
    <radialGradient id="planet" cx="35%" cy="30%" r="65%">
      <stop offset="0%" stop-color="#a5b4fc"/>
      <stop offset="100%" stop-color="#3730a3"/>
    </radialGradient>
  </defs>
  <rect width="1200" height="800" fill="url(#space)"/>
  <g fill="#fff">
    <circle cx="90" cy="80" r="2"/>
    <circle cx="170" cy="220" r="1.8"/>
    <circle cx="300" cy="120" r="2.2"/>
    <circle cx="430" cy="60" r="1.6"/>
    <circle cx="720" cy="90" r="2"/>
    <circle cx="860" cy="180" r="1.8"/>
    <circle cx="1040" cy="100" r="2"/>
    <circle cx="1110" cy="230" r="1.6"/>
    <circle cx="980" cy="320" r="1.8"/>
    <circle cx="130" cy="330" r="1.6"/>
    <circle cx="260" cy="290" r="1.8"/>
    <circle cx="560" cy="240" r="1.8"/>
  </g>
  <circle cx="900" cy="180" r="120" fill="url(#planet)"/>
  <ellipse cx="900" cy="180" rx="170" ry="36" fill="none" stroke="#67e8f9" stroke-width="8" opacity="0.55" transform="rotate(-12 900 180)"/>
  <g opacity="0.6">
    <circle cx="260" cy="170" r="90" fill="#1d4ed8"/>
    <circle cx="240" cy="145" r="18" fill="#dbeafe" opacity="0.35"/>
    <circle cx="300" cy="200" r="12" fill="#dbeafe" opacity="0.25"/>
  </g>
  <path d="M180 650 C330 520, 600 540, 750 640 S1030 760, 1180 650" fill="none" stroke="#1e3a8a" stroke-width="80" opacity="0.28"/>
  <path d="M0 760 C260 660, 490 700, 740 760 S1040 820, 1200 730 L1200 800 L0 800 Z" fill="#0b1120"/>
</svg>
