<svg xmlns="http://www.w3.org/2000/svg" viewBox="0 0 1200 800" preserveAspectRatio="xMidYMid slice">
  <defs>
    <linearGradient id="sky" x1="0%" y1="0%" x2="0%" y2="100%">
      <stop offset="0%" stop-color="#fbcfe8"/>
      <stop offset="52%" stop-color="#fdba74"/>
      <stop offset="100%" stop-color="#fed7aa"/>
    </linearGradient>
  </defs>
  <rect width="1200" height="800" fill="url(#sky)"/>
  <circle cx="600" cy="250" r="105" fill="#fff7ed" opacity="0.92"/>
  <g fill="#ffffff" opacity="0.6">
    <ellipse cx="210" cy="150" rx="96" ry="30"/>
    <ellipse cx="300" cy="148" rx="70" ry="24"/>
    <ellipse cx="900" cy="130" rx="100" ry="32"/>
    <ellipse cx="990" cy="128" rx="72" ry="24"/>
  </g>
  <path d="M0 510 C210 450, 420 470, 610 520 S970 600, 1200 520 L1200 800 L0 800 Z" fill="#c2410c" opacity="0.18"/>
  <path d="M0 620 C180 560, 370 660, 560 610 S930 550, 1200 640 L1200 800 L0 800 Z" fill="#9a3412" opacity="0.22"/>
  <path d="M0 690 C220 620, 440 730, 650 680 S970 620, 1200 710 L1200 800 L0 800 Z" fill="#7c2d12" opacity="0.4"/>
  <path d="M0 780 C240 720, 430 790, 650 750 S970 720, 1200 780 L1200 800 L0 800 Z" fill="#431407"/>
</svg>
